<svg width="197" height="197" viewBox="0 0 197 197" fill="none" xmlns="http://www.w3.org/2000/svg">
<rect width="197" height="197" fill="#E8E8E8"/>
<circle cx="63.9023" cy="99.5675" r="33.9023" fill="#B9B9B9"/>
<path d="M67.1064 108.423H59.6357C59.6162 107.349 59.6064 106.695 59.6064 106.461C59.6064 104.039 60.0068 102.047 60.8076 100.484C61.6084 98.9215 63.21 97.1637 65.6123 95.2106C68.0146 93.2574 69.4502 91.9781 69.9189 91.3727C70.6416 90.4156 71.0029 89.361 71.0029 88.2086C71.0029 86.6071 70.3584 85.2399 69.0693 84.1071C67.7998 82.9547 66.081 82.3785 63.9131 82.3785C61.8232 82.3785 60.0752 82.9742 58.6689 84.1656C57.2627 85.3571 56.2959 87.1735 55.7685 89.6149L48.21 88.6774C48.4248 85.1813 49.9092 82.2125 52.6631 79.7711C55.4365 77.3297 59.0693 76.109 63.5615 76.109C68.2881 76.109 72.0478 77.3492 74.8408 79.8297C77.6338 82.2906 79.0303 85.1617 79.0303 88.443C79.0303 90.2594 78.5127 91.9781 77.4775 93.5992C76.4619 95.2203 74.2744 97.4274 70.915 100.22C69.1767 101.666 68.0928 102.828 67.6631 103.707C67.2529 104.586 67.0674 106.158 67.1064 108.423ZM59.6357 119.498V111.265H67.8682V119.498H59.6357Z" fill="#E8E8E8"/>
<path d="M135.372 62L175.841 132.095H94.9023L135.372 62Z" fill="#B9B9B9"/>
<path d="M131.252 96.2091L138.723 96.2091C138.742 97.2833 138.752 97.9376 138.752 98.172C138.752 100.594 138.352 102.586 137.551 104.149C136.75 105.711 135.148 107.469 132.746 109.422C130.344 111.375 128.908 112.654 128.439 113.26C127.717 114.217 127.355 115.272 127.355 116.424C127.355 118.026 128 119.393 129.289 120.526C130.559 121.678 132.277 122.254 134.445 122.254C136.535 122.254 138.283 121.658 139.689 120.467C141.096 119.276 142.063 117.459 142.59 115.018L150.148 115.955C149.934 119.451 148.449 122.42 145.695 124.861C142.922 127.303 139.289 128.524 134.797 128.524C130.07 128.524 126.311 127.283 123.518 124.803C120.725 122.342 119.328 119.471 119.328 116.19C119.328 114.373 119.846 112.654 120.881 111.033C121.896 109.412 124.084 107.205 127.443 104.412C129.182 102.967 130.266 101.805 130.695 100.926C131.105 100.047 131.291 98.4747 131.252 96.2091ZM138.723 85.1349L138.723 93.3673L130.49 93.3673L130.49 85.1349L138.723 85.1349Z" fill="#E8E8E8"/>
</svg>
