<svg width="163" height="166" viewBox="0 0 163 166" fill="none" xmlns="http://www.w3.org/2000/svg">
<path d="M81.5 0L107.847 46.0684L159.011 57.3516L124.131 97.1066L129.404 150.148L81.5 128.65L33.5955 150.148L38.8689 97.1066L3.98889 57.3516L55.1525 46.0684L81.5 0Z" fill="#C6FF00"/>
<path d="M82.63 110.98C78.85 110.98 75.5133 110.303 72.62 108.95C69.7267 107.597 67.4633 105.66 65.83 103.14C64.1967 100.62 63.38 97.5867 63.38 94.04V92.08H72.48V94.04C72.48 96.98 73.39 99.1967 75.21 100.69C77.03 102.137 79.5033 102.86 82.63 102.86C85.8033 102.86 88.16 102.23 89.7 100.97C91.2867 99.71 92.08 98.1 92.08 96.14C92.08 94.7867 91.6833 93.69 90.89 92.85C90.1433 92.01 89.0233 91.3333 87.53 90.82C86.0833 90.26 84.31 89.7467 82.21 89.28L80.6 88.93C77.24 88.1833 74.3467 87.25 71.92 86.13C69.54 84.9633 67.6967 83.4467 66.39 81.58C65.13 79.7133 64.5 77.2867 64.5 74.3C64.5 71.3133 65.2 68.77 66.6 66.67C68.0467 64.5233 70.0533 62.89 72.62 61.77C75.2333 60.6033 78.29 60.02 81.79 60.02C85.29 60.02 88.3933 60.6267 91.1 61.84C93.8533 63.0067 96 64.78 97.54 67.16C99.1267 69.4933 99.92 72.4333 99.92 75.98V78.08H90.82V75.98C90.82 74.1133 90.4467 72.62 89.7 71.5C89 70.3333 87.9733 69.4933 86.62 68.98C85.2667 68.42 83.6567 68.14 81.79 68.14C78.99 68.14 76.9133 68.6767 75.56 69.75C74.2533 70.7767 73.6 72.2 73.6 74.02C73.6 75.2333 73.9033 76.26 74.51 77.1C75.1633 77.94 76.12 78.64 77.38 79.2C78.64 79.76 80.25 80.25 82.21 80.67L83.82 81.02C87.32 81.7667 90.3533 82.7233 92.92 83.89C95.5333 85.0567 97.5633 86.5967 99.01 88.51C100.457 90.4233 101.18 92.8733 101.18 95.86C101.18 98.8467 100.41 101.483 98.87 103.77C97.3767 106.01 95.23 107.783 92.43 109.09C89.6767 110.35 86.41 110.98 82.63 110.98Z" fill="black"/>
<path d="M80.63 107.98C76.85 107.98 73.5133 107.303 70.62 105.95C67.7267 104.597 65.4633 102.66 63.83 100.14C62.1967 97.62 61.38 94.5867 61.38 91.04V89.08H70.48V91.04C70.48 93.98 71.39 96.1967 73.21 97.69C75.03 99.1367 77.5033 99.86 80.63 99.86C83.8033 99.86 86.16 99.23 87.7 97.97C89.2867 96.71 90.08 95.1 90.08 93.14C90.08 91.7867 89.6833 90.69 88.89 89.85C88.1433 89.01 87.0233 88.3333 85.53 87.82C84.0833 87.26 82.31 86.7467 80.21 86.28L78.6 85.93C75.24 85.1833 72.3467 84.25 69.92 83.13C67.54 81.9633 65.6967 80.4467 64.39 78.58C63.13 76.7133 62.5 74.2867 62.5 71.3C62.5 68.3133 63.2 65.77 64.6 63.67C66.0467 61.5233 68.0533 59.89 70.62 58.77C73.2333 57.6033 76.29 57.02 79.79 57.02C83.29 57.02 86.3933 57.6267 89.1 58.84C91.8533 60.0067 94 61.78 95.54 64.16C97.1267 66.4933 97.92 69.4333 97.92 72.98V75.08H88.82V72.98C88.82 71.1133 88.4467 69.62 87.7 68.5C87 67.3333 85.9733 66.4933 84.62 65.98C83.2667 65.42 81.6567 65.14 79.79 65.14C76.99 65.14 74.9133 65.6767 73.56 66.75C72.2533 67.7767 71.6 69.2 71.6 71.02C71.6 72.2333 71.9033 73.26 72.51 74.1C73.1633 74.94 74.12 75.64 75.38 76.2C76.64 76.76 78.25 77.25 80.21 77.67L81.82 78.02C85.32 78.7667 88.3533 79.7233 90.92 80.89C93.5333 82.0567 95.5633 83.5967 97.01 85.51C98.4567 87.4233 99.18 89.8733 99.18 92.86C99.18 95.8467 98.41 98.4833 96.87 100.77C95.3767 103.01 93.23 104.783 90.43 106.09C87.6767 107.35 84.41 107.98 80.63 107.98Z" fill="white"/>
</svg>